<svg width="120" height="100" viewBox="0 0 120 100" fill="none" xmlns="http://www.w3.org/2000/svg">
<path d="M86.575 2.74229H107.589L94.8458 50.4516C92.3948 59.5248 90.7153 65.0745 89.7876 67.1495C93.0784 79.7705 97.8924 86.0688 104.171 86.0688C111.592 86.0688 115.44 81.7805 115.694 73.2037H120C119.746 81.1864 118.018 87.6556 114.766 92.6113C111.514 97.5344 107.257 99.9919 101.984 99.9919C97.6385 99.9919 94.3869 98.519 92.2386 95.5651C90.1294 92.6113 87.8054 86.5652 85.3641 77.4595C76.8004 92.4729 62.7879 100 43.3851 100C30.0952 100 19.5883 95.6791 11.7373 87.0616C3.92546 78.436 0 66.0998 0 50.0285C0 34.242 4.25747 21.9709 12.8212 13.1825C21.3947 4.39417 31.6869 0 43.7074 0C52.1833 0 59.1456 2.49817 64.5944 7.52706C70.0334 12.5234 74.8474 20.7096 79.0268 32.0286L86.575 2.74229ZM75.6872 43.1361C71.8496 32.1344 67.5043 23.517 62.739 17.2919C57.9738 11.1075 52.2711 8.00716 45.6115 8.00716C30.5542 8.00716 23.0352 22.7032 23.0352 52.0628C23.0352 79.9414 30.2514 93.8644 44.635 93.8644C57.1243 93.8644 66.3618 81.5607 72.3574 56.9452L75.6872 43.1361Z" fill="#3071F5"/>
</svg>
